<svg xmlns="http://www.w3.org/2000/svg" xml:space="preserve" width="2000" height="1500" data-id="lg_Lne08T0Y45wbpWOHnk" data-version="1" viewBox="0 0 2000 1500"><path fill="#f75d39" stroke="transparent" d="M0 0h2000v1500H0z"/><g data-padding="20"><g transform="translate(-1755.102 -1332.758)scale(2.67967)"><path fill="#ff795b" d="m1275.783 734.24-4.733 24.445a24.6 24.6 0 0 0 7.973 23.193l18.762 16.368-24.444-4.732a24.6 24.6 0 0 0-23.194 7.973l-16.368 18.762 4.732-24.445a24.6 24.6 0 0 0-7.973-23.194l-18.755-16.37 24.445 4.733a24.6 24.6 0 0 0 23.193-7.973Z"/><rect width="393.236" height="76.84" x="584.995" y="697.525" fill="none" rx="0" ry="0" transform="matrix(.97 0 0 .97 191.07 63.45)"/><path fill="#f7f0e8" d="M793.298 751.534v36.608h14.443v9.894h-27.373v-46.502Zm14.443 27.965q0-5.742 2.086-10.03 2.076-4.287 5.665-6.596 3.598-2.308 8.022-2.308 3.821 0 6.596 1.523 2.764 1.513 4.287 4.083v-5.14h12.92v37.005h-12.92v-5.15q-1.523 2.57-4.326 4.092-2.803 1.514-6.557 1.514-4.423 0-8.022-2.309-3.59-2.309-5.665-6.625-2.085-4.326-2.085-10.059m26.655 0q0-3.56-1.95-5.607-1.95-2.046-4.782-2.046-2.9 0-4.81 2.008-1.921 2.017-1.921 5.645 0 3.56 1.92 5.636 1.911 2.075 4.811 2.075 2.833 0 4.782-2.036 1.95-2.047 1.95-5.675m35.483 7.517h3.763v11.02h-5.606q-14.182 0-14.182-14.056v-12.202h-4.559V761.03h4.56v-8.972h12.988v8.972h6.731v10.748h-6.731v12.406q0 1.513.698 2.173.689.66 2.338.66m42.146-7.916q0 1.513-.194 3.036h-24.473q.194 3.036 1.678 4.52 1.484 1.485 3.793 1.485 3.24 0 4.617-2.91h13.794q-.864 3.831-3.337 6.83-2.474 3.006-6.228 4.713-3.763 1.717-8.313 1.717-5.48 0-9.729-2.309-4.258-2.309-6.664-6.596t-2.405-10.088q0-5.81 2.376-10.059 2.367-4.258 6.625-6.567 4.259-2.308 9.797-2.308 5.471 0 9.69 2.24 4.23 2.25 6.597 6.431 2.376 4.19 2.376 9.865m-24.599-3.23h11.407q0-2.376-1.58-3.725-1.582-1.358-3.959-1.358t-3.89 1.29q-1.522 1.28-1.978 3.793"/><path fill="#f7f0e8" d="M952.009 798.036h-14.511l-6.664-9.303-5.277 9.303h-14.181l12.338-19.197-12.862-17.809h14.511l6.664 9.302 5.335-9.302h14.181l-12.59 18.867Z"/><path fill="#f7f0e8" d="M988.278 779.101q0 1.513-.194 3.036h-24.473q.194 3.036 1.678 4.52 1.484 1.485 3.793 1.485 3.23 0 4.617-2.91h13.784q-.854 3.831-3.328 6.83-2.473 3.006-6.237 4.713-3.754 1.717-8.303 1.717-5.48 0-9.729-2.309-4.258-2.309-6.664-6.596t-2.405-10.088q0-5.81 2.366-10.059 2.377-4.258 6.635-6.567 4.249-2.308 9.797-2.308 5.47 0 9.69 2.24 4.22 2.25 6.596 6.431 2.377 4.19 2.377 9.865m-24.6-3.23h11.408q0-2.376-1.581-3.725-1.581-1.358-3.958-1.358t-3.89 1.29q-1.522 1.28-1.978 3.793m24.86 3.628q0-5.742 2.077-10.03 2.085-4.287 5.713-6.596 3.628-2.308 8.041-2.308 3.56 0 6.363 1.484t4.394 4.054v-16.877h12.989v48.81h-12.989v-5.15q-1.522 2.57-4.287 4.093-2.774 1.514-6.538 1.514-4.413 0-8.012-2.309-3.589-2.309-5.674-6.625-2.076-4.326-2.076-10.059m26.646 0q0-3.56-1.94-5.607-1.95-2.046-4.782-2.046-2.9 0-4.821 2.008-1.911 2.017-1.911 5.645 0 3.56 1.91 5.636 1.921 2.075 4.822 2.075 2.832 0 4.782-2.036 1.94-2.047 1.94-5.675m23.958-21.904q-3.434 0-5.51-1.88-2.075-1.873-2.075-4.716 0-2.9 2.075-4.81 2.076-1.912 5.51-1.912 3.366 0 5.442 1.911t2.076 4.811q0 2.843-2.076 4.715-2.076 1.881-5.442 1.881m-6.528 3.434h12.92v37.006h-12.92Zm35.473 25.986h3.764v11.02h-5.607q-14.18 0-14.18-14.056v-12.202h-4.56V761.03h4.56v-8.972h12.987v8.972h6.732v10.748h-6.732v12.406q0 1.513.699 2.173.688.66 2.337.66m24.008 11.475q-5.539 0-9.923-2.309t-6.897-6.596q-2.502-4.287-2.502-10.088 0-5.742 2.541-10.03 2.532-4.287 6.926-6.596 4.383-2.307 9.923-2.307t9.923 2.308q4.394 2.31 6.926 6.596 2.541 4.288 2.541 10.03 0 5.733-2.541 10.06-2.532 4.315-6.955 6.624t-9.962 2.31m0-11.215q2.706 0 4.52-2.008 1.814-2.017 1.814-5.77 0-3.765-1.814-5.743t-4.452-1.982q-2.639 0-4.423 1.98-1.775 1.978-1.775 5.742 0 3.822 1.716 5.8 1.708 1.98 4.414 1.98m34.765-19.72q2.173-3.163 5.277-5.016 3.094-1.843 6.663-1.843v13.784h-3.627q-4.23 0-6.266 1.65-2.047 1.648-2.047 5.741v16.16h-12.93v-37.003h12.93Zm43.403 2.354a7.564 7.564 0 1 0 0 15.128 7.564 7.564 0 1 0 0-15.128"/></g><path fill="transparent" stroke="transparent" stroke-width="2.783" d="M250 630.334h1500v239.332H250z"/></g></svg>